{
  "accessors": [
    {
      "bufferView": 2,
      "componentType": 5126,
      "count": 5066,
      "max": [
        0.7725110054016113,
        0.20823200047016144,
        1.9200880527496338
      ],
      "min": [
        -0.7725110054016113,
        -0.18820799887180328,
        -0.001415999955497682
      ],
      "type": "VEC3"
    },
    {
      "bufferView": 2,
      "byteOffset": 60792,
      "componentType": 5126,
      "count": 5066,
      "max": [
        0.9999209642410278,
        0.9999706149101257,
        0.9995819926261902
      ],
      "min": [
        -0.9999209642410278,
        -0.9999786615371704,
        -0.9999999403953552
      ],
      "type": "VEC3"
    },
    {
      "bufferView": 1,
      "componentType": 5126,
      "count": 5066,
      "max": [
        0.9980469942092896,
        0.9964140057563782
      ],
      "min": [
        0.0037120000924915075,
        0.0039059999398887157
      ],
      "type": "VEC2"
    },
    {
      "bufferView": 0,
      "componentType": 5125,
      "count": 20784,
      "type": "SCALAR"
    }
  ],
  "asset": {
    "extras": {
      "author": "offthewall041 (https://sketchfab.com/offthewall041)",
      "license": "CC-BY-4.0 (http://creativecommons.org/licenses/by/4.0/)",
      "source": "https://sketchfab.com/3d-models/reverse-flash-5a5ebd201efe4539923404d7e848dac0",
      "title": "Reverse Flash"
    },
    "generator": "Sketchfab-12.68.0",
    "version": "2.0"
  },
  "bufferViews": [
    {
      "buffer": 0,
      "byteLength": 83136,
      "name": "floatBufferViews",
      "target": 34963
    },
    {
      "buffer": 0,
      "byteLength": 40528,
      "byteOffset": 83136,
      "byteStride": 8,
      "name": "floatBufferViews",
      "target": 34962
    },
    {
      "buffer": 0,
      "byteLength": 121584,
      "byteOffset": 123664,
      "byteStride": 12,
      "name": "floatBufferViews",
      "target": 34962
    }
  ],
  "buffers": [
    {
      "byteLength": 245248,
      "uri": "scene.bin"
    }
  ],
  "images": [
    {
      "uri": "textures/INJ_iOS_CHR_ETH_MET_B_baseColor.png"
    }
  ],
  "materials": [
    {
      "doubleSided": true,
      "name": "INJ_iOS_CHR_ETH_MET_B",
      "pbrMetallicRoughness": {
        "baseColorTexture": {
          "index": 0
        },
        "metallicFactor": 0.0,
        "roughnessFactor": 0.6
      }
    }
  ],
  "meshes": [
    {
      "name": "Object_0",
      "primitives": [
        {
          "attributes": {
            "NORMAL": 1,
            "POSITION": 0,
            "TEXCOORD_0": 2
          },
          "indices": 3,
          "material": 0,
          "mode": 4
        }
      ]
    }
  ],
  "nodes": [
    {
      "children": [
        1
      ],
      "matrix": [
        0.9141592383384705,
        0.0,
        0.0,
        0.0,
        0.0,
        2.029841269154332e-16,
        -0.9141592383384705,
        0.0,
        0.0,
        0.9141592383384705,
        2.029841269154332e-16,
        0.0,
        0.0,
        0.0,
        0.0,
        1.0
      ],
      "name": "Sketchfab_model"
    },
    {
      "children": [
        2
      ],
      "name": "INJ_iOS_CHARACTER_Eobard_Thawne_Reverse_Flash_Metahuman.obj.cleaner.materialmerger.gles"
    },
    {
      "mesh": 0,
      "name": "Object_2"
    }
  ],
  "samplers": [
    {
      "magFilter": 9729,
      "minFilter": 9987,
      "wrapS": 10497,
      "wrapT": 10497
    }
  ],
  "scene": 0,
  "scenes": [
    {
      "name": "Sketchfab_Scene",
      "nodes": [
        0
      ]
    }
  ],
  "textures": [
    {
      "sampler": 0,
      "source": 0
    }
  ]
}
