{
  "accessors": [
    {
      "bufferView": 2,
      "componentType": 5126,
      "count": 65532,
      "max": [
        2.3768999576568604,
        0.7812299728393555,
        6.712590217590332
      ],
      "min": [
        -2.381589889526367,
        -0.5567579865455627,
        -0.48331499099731445
      ],
      "type": "VEC3"
    },
    {
      "bufferView": 2,
      "byteOffset": 786384,
      "componentType": 5126,
      "count": 65532,
      "max": [
        0.9999717473983765,
        0.9999726414680481,
        0.9998258948326111
      ],
      "min": [
        -0.9999984502792358,
        -0.9999987483024597,
        -0.9987690448760986
      ],
      "type": "VEC3"
    },
    {
      "bufferView": 1,
      "componentType": 5126,
      "count": 65532,
      "max": [
        0.8936010003089905,
        0.999118983745575
      ],
      "min": [
        0.00061365298461169,
        0.00013536200276575983
      ],
      "type": "VEC2"
    },
    {
      "bufferView": 0,
      "componentType": 5125,
      "count": 367752,
      "type": "SCALAR"
    },
    {
      "bufferView": 2,
      "byteOffset": 1572768,
      "componentType": 5126,
      "count": 20724,
      "max": [
        1.0787800550460815,
        0.7812299728393555,
        6.717080116271973
      ],
      "min": [
        -1.0512700080871582,
        -0.556318998336792,
        -0.48331499099731445
      ],
      "type": "VEC3"
    },
    {
      "bufferView": 2,
      "byteOffset": 1821456,
      "componentType": 5126,
      "count": 20724,
      "max": [
        0.9999822974205017,
        0.9999591708183289,
        0.9997909069061279
      ],
      "min": [
        -0.9998876452445984,
        -0.9999768733978271,
        -0.9997333884239197
      ],
      "type": "VEC3"
    },
    {
      "bufferView": 1,
      "byteOffset": 524256,
      "componentType": 5126,
      "count": 20724,
      "max": [
        0.8956779837608337,
        0.9998649954795837
      ],
      "min": [
        0.01190819963812828,
        0.0063137998804450035
      ],
      "type": "VEC2"
    },
    {
      "bufferView": 0,
      "byteOffset": 1471008,
      "componentType": 5125,
      "count": 98130,
      "type": "SCALAR"
    },
    {
      "bufferView": 2,
      "byteOffset": 2070144,
      "componentType": 5126,
      "count": 19757,
      "max": [
        0.2037860006093979,
        -0.2846600115299225,
        6.876090049743652
      ],
      "min": [
        -0.20378699898719788,
        -0.4385150074958801,
        6.716450214385986
      ],
      "type": "VEC3"
    },
    {
      "bufferView": 2,
      "byteOffset": 2307228,
      "componentType": 5126,
      "count": 19757,
      "max": [
        0.9997332692146301,
        0.9999831914901733,
        0.9999630451202393
      ],
      "min": [
        -0.9997329115867615,
        -0.9999731183052063,
        -0.9998475313186646
      ],
      "type": "VEC3"
    },
    {
      "bufferView": 1,
      "byteOffset": 690048,
      "componentType": 5126,
      "count": 19757,
      "max": [
        0.9995409846305847,
        0.9992660284042358
      ],
      "min": [
        0.000679484975989908,
        0.08448570221662521
      ],
      "type": "VEC2"
    },
    {
      "bufferView": 0,
      "byteOffset": 1863528,
      "componentType": 5125,
      "count": 115152,
      "type": "SCALAR"
    },
    {
      "bufferView": 2,
      "byteOffset": 2544312,
      "componentType": 5126,
      "count": 19961,
      "max": [
        2.596829891204834,
        -0.17523999512195587,
        4.210360050201416
      ],
      "min": [
        -2.596479892730713,
        -0.8159530162811279,
        3.4893200397491455
      ],
      "type": "VEC3"
    },
    {
      "bufferView": 2,
      "byteOffset": 2783844,
      "componentType": 5126,
      "count": 19961,
      "max": [
        0.9999805092811584,
        0.9998520016670227,
        0.9992212653160095
      ],
      "min": [
        -0.9999491572380066,
        -0.9999204277992249,
        -0.9999738335609436
      ],
      "type": "VEC3"
    },
    {
      "bufferView": 1,
      "byteOffset": 848104,
      "componentType": 5126,
      "count": 19961,
      "max": [
        0.9994570016860962,
        0.9998810291290283
      ],
      "min": [
        0.00029799999902024865,
        0.0043999501504004
      ],
      "type": "VEC2"
    },
    {
      "bufferView": 0,
      "byteOffset": 2324136,
      "componentType": 5125,
      "count": 111723,
      "type": "SCALAR"
    },
    {
      "bufferView": 2,
      "byteOffset": 3023376,
      "componentType": 5126,
      "count": 46348,
      "max": [
        0.4124940037727356,
        0.40318599343299866,
        8.101280212402344
      ],
      "min": [
        -0.4125019907951355,
        -0.4868740141391754,
        6.4323601722717285
      ],
      "type": "VEC3"
    },
    {
      "bufferView": 2,
      "byteOffset": 3579552,
      "componentType": 5126,
      "count": 46348,
      "max": [
        0.9999996423721313,
        0.9997298121452332,
        0.9999998807907104
      ],
      "min": [
        -0.9999959468841553,
        -0.999983549118042,
        -0.9999110698699951
      ],
      "type": "VEC3"
    },
    {
      "bufferView": 1,
      "byteOffset": 1007792,
      "componentType": 5126,
      "count": 46348,
      "max": [
        0.8208550214767456,
        0.999871015548706
      ],
      "min": [
        4.0972001443151385e-05,
        0.0008779159979894757
      ],
      "type": "VEC2"
    },
    {
      "bufferView": 0,
      "byteOffset": 2771028,
      "componentType": 5125,
      "count": 267174,
      "type": "SCALAR"
    },
    {
      "bufferView": 2,
      "byteOffset": 4135728,
      "componentType": 5126,
      "count": 6394,
      "max": [
        1.0957000255584717,
        0.7813169956207275,
        0.01689009927213192
      ],
      "min": [
        -1.0957000255584717,
        -0.3743239939212799,
        -0.5727120041847229
      ],
      "type": "VEC3"
    },
    {
      "bufferView": 2,
      "byteOffset": 4212456,
      "componentType": 5126,
      "count": 6394,
      "max": [
        0.9996123909950256,
        0.9990728497505188,
        0.9963898658752441
      ],
      "min": [
        -0.9996123909950256,
        -0.999968409538269,
        -0.9998867511749268
      ],
      "type": "VEC3"
    },
    {
      "bufferView": 1,
      "byteOffset": 1378576,
      "componentType": 5126,
      "count": 6394,
      "max": [
        0.9056000113487244,
        0.9995920062065125
      ],
      "min": [
        4.438000178197399e-05,
        0.0008589019998908043
      ],
      "type": "VEC2"
    },
    {
      "bufferView": 0,
      "byteOffset": 3839724,
      "componentType": 5125,
      "count": 36864,
      "type": "SCALAR"
    },
    {
      "bufferView": 2,
      "byteOffset": 4289184,
      "componentType": 5126,
      "count": 6278,
      "max": [
        0.2911989986896515,
        1.036829948425293,
        5.284220218658447
      ],
      "min": [
        -0.2911979854106903,
        0.33967500925064087,
        3.662709951400757
      ],
      "type": "VEC3"
    },
    {
      "bufferView": 2,
      "byteOffset": 4364520,
      "componentType": 5126,
      "count": 6278,
      "max": [
        1.0,
        0.9999375343322754,
        0.99832683801651
      ],
      "min": [
        -1.0,
        -0.9999375343322754,
        -0.9983268976211548
      ],
      "type": "VEC3"
    },
    {
      "bufferView": 1,
      "byteOffset": 1429728,
      "componentType": 5126,
      "count": 6278,
      "max": [
        0.9920819997787476,
        0.9989330172538757
      ],
      "min": [
        0.00012829600018449128,
        0.0010667400201782584
      ],
      "type": "VEC2"
    },
    {
      "bufferView": 0,
      "byteOffset": 3987180,
      "componentType": 5125,
      "count": 36864,
      "type": "SCALAR"
    },
    {
      "bufferView": 2,
      "byteOffset": 4439856,
      "componentType": 5126,
      "count": 12622,
      "max": [
        1.5790300369262695,
        1.4541599750518799,
        6.266240119934082
      ],
      "min": [
        -1.5790300369262695,
        0.5517410039901733,
        1.9830000400543213
      ],
      "type": "VEC3"
    },
    {
      "bufferView": 2,
      "byteOffset": 4591320,
      "componentType": 5126,
      "count": 12622,
      "max": [
        0.9995519518852234,
        0.9999768733978271,
        0.980280339717865
      ],
      "min": [
        -0.999552309513092,
        -0.9999947547912598,
        -0.98630690574646
      ],
      "type": "VEC3"
    },
    {
      "bufferView": 1,
      "byteOffset": 1479952,
      "componentType": 5126,
      "count": 12622,
      "max": [
        0.9996939897537231,
        0.9997199773788452
      ],
      "min": [
        0.00032042700331658125,
        0.13168400526046753
      ],
      "type": "VEC2"
    },
    {
      "bufferView": 0,
      "byteOffset": 4134636,
      "componentType": 5125,
      "count": 73728,
      "type": "SCALAR"
    }
  ],
  "asset": {
    "extras": {
      "author": "Christian Day (https://sketchfab.com/biochrisdd)",
      "license": "CC-BY-4.0 (http://creativecommons.org/licenses/by/4.0/)",
      "source": "https://sketchfab.com/3d-models/perfect-cell-dragon-ball-z-villain-92acd4b32c9b4e029b67c407f3e412de",
      "title": "Perfect Cell - Dragon Ball Z Villain"
    },
    "generator": "Sketchfab-12.68.0",
    "version": "2.0"
  },
  "bufferViews": [
    {
      "buffer": 0,
      "byteLength": 4429548,
      "name": "floatBufferViews",
      "target": 34963
    },
    {
      "buffer": 0,
      "byteLength": 1580928,
      "byteOffset": 4429548,
      "byteStride": 8,
      "name": "floatBufferViews",
      "target": 34962
    },
    {
      "buffer": 0,
      "byteLength": 4742784,
      "byteOffset": 6010476,
      "byteStride": 12,
      "name": "floatBufferViews",
      "target": 34962
    }
  ],
  "buffers": [
    {
      "byteLength": 10753260,
      "uri": "scene.bin"
    }
  ],
  "images": [
    {
      "uri": "textures/mat0_body_baseColor.png"
    },
    {
      "uri": "textures/mat0_eyes_baseColor.png"
    },
    {
      "uri": "textures/mat0_hands_baseColor.png"
    },
    {
      "uri": "textures/mat0_helmet_baseColor.png"
    },
    {
      "uri": "textures/mat0_shoes_baseColor.png"
    },
    {
      "uri": "textures/mat0_tail_baseColor.png"
    },
    {
      "uri": "textures/mat0_wings_baseColor.png"
    }
  ],
  "materials": [
    {
      "doubleSided": true,
      "name": "mat0_body",
      "pbrMetallicRoughness": {
        "baseColorTexture": {
          "index": 0
        },
        "metallicFactor": 0.6180265309831001,
        "roughnessFactor": 0.6
      }
    },
    {
      "doubleSided": true,
      "name": "mat0_eyes",
      "pbrMetallicRoughness": {
        "baseColorTexture": {
          "index": 1
        },
        "metallicFactor": 0.4959113210975831,
        "roughnessFactor": 0.6
      }
    },
    {
      "doubleSided": true,
      "name": "mat0_hands",
      "pbrMetallicRoughness": {
        "baseColorTexture": {
          "index": 2
        },
        "metallicFactor": 0.5715064510267127,
        "roughnessFactor": 0.6
      }
    },
    {
      "doubleSided": true,
      "name": "mat0_helmet",
      "pbrMetallicRoughness": {
        "baseColorTexture": {
          "index": 3
        },
        "metallicFactor": 0.7226967108849718,
        "roughnessFactor": 0.6
      }
    },
    {
      "doubleSided": true,
      "name": "mat0_shoes",
      "pbrMetallicRoughness": {
        "baseColorTexture": {
          "index": 4
        },
        "metallicFactor": 0.6005815009994548,
        "roughnessFactor": 0.6
      }
    },
    {
      "doubleSided": true,
      "name": "mat0_tail",
      "pbrMetallicRoughness": {
        "baseColorTexture": {
          "index": 5
        },
        "metallicFactor": 0.6063965109940033,
        "roughnessFactor": 0.6
      }
    },
    {
      "doubleSided": true,
      "name": "mat0_wings",
      "pbrMetallicRoughness": {
        "baseColorTexture": {
          "index": 6
        },
        "metallicFactor": 0.6063965109940033,
        "roughnessFactor": 0.45520625113574414
      }
    }
  ],
  "meshes": [
    {
      "name": "Object_0",
      "primitives": [
        {
          "attributes": {
            "NORMAL": 1,
            "POSITION": 0,
            "TEXCOORD_0": 2
          },
          "indices": 3,
          "material": 0,
          "mode": 4
        }
      ]
    },
    {
      "name": "Object_1",
      "primitives": [
        {
          "attributes": {
            "NORMAL": 5,
            "POSITION": 4,
            "TEXCOORD_0": 6
          },
          "indices": 7,
          "material": 0,
          "mode": 4
        }
      ]
    },
    {
      "name": "Object_2",
      "primitives": [
        {
          "attributes": {
            "NORMAL": 9,
            "POSITION": 8,
            "TEXCOORD_0": 10
          },
          "indices": 11,
          "material": 1,
          "mode": 4
        }
      ]
    },
    {
      "name": "Object_3",
      "primitives": [
        {
          "attributes": {
            "NORMAL": 13,
            "POSITION": 12,
            "TEXCOORD_0": 14
          },
          "indices": 15,
          "material": 2,
          "mode": 4
        }
      ]
    },
    {
      "name": "Object_4",
      "primitives": [
        {
          "attributes": {
            "NORMAL": 17,
            "POSITION": 16,
            "TEXCOORD_0": 18
          },
          "indices": 19,
          "material": 3,
          "mode": 4
        }
      ]
    },
    {
      "name": "Object_5",
      "primitives": [
        {
          "attributes": {
            "NORMAL": 21,
            "POSITION": 20,
            "TEXCOORD_0": 22
          },
          "indices": 23,
          "material": 4,
          "mode": 4
        }
      ]
    },
    {
      "name": "Object_6",
      "primitives": [
        {
          "attributes": {
            "NORMAL": 25,
            "POSITION": 24,
            "TEXCOORD_0": 26
          },
          "indices": 27,
          "material": 5,
          "mode": 4
        }
      ]
    },
    {
      "name": "Object_7",
      "primitives": [
        {
          "attributes": {
            "NORMAL": 29,
            "POSITION": 28,
            "TEXCOORD_0": 30
          },
          "indices": 31,
          "material": 6,
          "mode": 4
        }
      ]
    }
  ],
  "nodes": [
    {
      "children": [
        1
      ],
      "matrix": [
        1.0,
        0.0,
        0.0,
        0.0,
        0.0,
        2.220446049250313e-16,
        -1.0,
        0.0,
        0.0,
        1.0,
        2.220446049250313e-16,
        0.0,
        0.0,
        0.0,
        0.0,
        1.0
      ],
      "name": "Sketchfab_model"
    },
    {
      "children": [
        2,
        3,
        4,
        5,
        6,
        7,
        8,
        9
      ],
      "name": "Perfect_Cell.obj.cleaner.materialmerger.gles"
    },
    {
      "mesh": 0,
      "name": "Object_2"
    },
    {
      "mesh": 1,
      "name": "Object_3"
    },
    {
      "mesh": 2,
      "name": "Object_4"
    },
    {
      "mesh": 3,
      "name": "Object_5"
    },
    {
      "mesh": 4,
      "name": "Object_6"
    },
    {
      "mesh": 5,
      "name": "Object_7"
    },
    {
      "mesh": 6,
      "name": "Object_8"
    },
    {
      "mesh": 7,
      "name": "Object_9"
    }
  ],
  "samplers": [
    {
      "magFilter": 9729,
      "minFilter": 9987,
      "wrapS": 10497,
      "wrapT": 10497
    }
  ],
  "scene": 0,
  "scenes": [
    {
      "name": "Sketchfab_Scene",
      "nodes": [
        0
      ]
    }
  ],
  "textures": [
    {
      "sampler": 0,
      "source": 0
    },
    {
      "sampler": 0,
      "source": 1
    },
    {
      "sampler": 0,
      "source": 2
    },
    {
      "sampler": 0,
      "source": 3
    },
    {
      "sampler": 0,
      "source": 4
    },
    {
      "sampler": 0,
      "source": 5
    },
    {
      "sampler": 0,
      "source": 6
    }
  ]
}
