{
  "accessors": [
    {
      "bufferView": 3,
      "componentType": 5126,
      "count": 615,
      "max": [
        30.664134979248047,
        116.70319366455078,
        11.243843078613281
      ],
      "min": [
        -30.769535064697266,
        71.28500366210938,
        -8.773853302001953
      ],
      "type": "VEC3"
    },
    {
      "bufferView": 3,
      "byteOffset": 7380,
      "componentType": 5126,
      "count": 615,
      "max": [
        0.9998393654823303,
        0.9957430362701416,
        0.9993800520896912
      ],
      "min": [
        -0.9988341331481934,
        -0.9999922513961792,
        -0.9996615648269653
      ],
      "type": "VEC3"
    },
    {
      "bufferView": 4,
      "componentType": 5126,
      "count": 615,
      "max": [
        0.9999563694000244,
        0.9891612529754639,
        0.9988473653793335,
        1.0
      ],
      "min": [
        -0.9999619722366333,
        -0.9915141463279724,
        -0.9999057054519653,
        1.0
      ],
      "type": "VEC4"
    },
    {
      "bufferView": 2,
      "componentType": 5126,
      "count": 615,
      "max": [
        0.9841300249099731,
        0.9865990281105042
      ],
      "min": [
        0.017969999462366104,
        0.01582000032067299
      ],
      "type": "VEC2"
    },
    {
      "bufferView": 1,
      "componentType": 5125,
      "count": 2778,
      "type": "SCALAR"
    },
    {
      "bufferView": 3,
      "byteOffset": 14760,
      "componentType": 5126,
      "count": 804,
      "max": [
        5.3192925453186035,
        130.81695556640625,
        7.960761070251465
      ],
      "min": [
        -5.319586277008057,
        127.11185455322266,
        4.274818420410156
      ],
      "type": "VEC3"
    },
    {
      "bufferView": 3,
      "byteOffset": 24408,
      "componentType": 5126,
      "count": 804,
      "max": [
        0.9999728202819824,
        0.9991840124130249,
        0.9935418963432312
      ],
      "min": [
        -0.9999727606773376,
        -0.9991852045059204,
        -0.9991350769996643
      ],
      "type": "VEC3"
    },
    {
      "bufferView": 4,
      "byteOffset": 9840,
      "componentType": 5126,
      "count": 804,
      "max": [
        0.9999911189079285,
        0.6478181481361389,
        0.9992153644561768,
        1.0
      ],
      "min": [
        -0.9999867677688599,
        -0.647797703742981,
        -0.9992156028747559,
        1.0
      ],
      "type": "VEC4"
    },
    {
      "bufferView": 2,
      "byteOffset": 4920,
      "componentType": 5126,
      "count": 804,
      "max": [
        0.5983250141143799,
        0.9982979893684387
      ],
      "min": [
        0.501675009727478,
        0.703918993473053
      ],
      "type": "VEC2"
    },
    {
      "bufferView": 1,
      "byteOffset": 11112,
      "componentType": 5125,
      "count": 4560,
      "type": "SCALAR"
    },
    {
      "bufferView": 3,
      "byteOffset": 34056,
      "componentType": 5126,
      "count": 7232,
      "max": [
        70.18814849853516,
        140.31390380859375,
        11.2337064743042
      ],
      "min": [
        -70.19050598144531,
        3.348479986190796,
        -9.350458145141602
      ],
      "type": "VEC3"
    },
    {
      "bufferView": 3,
      "byteOffset": 120840,
      "componentType": 5126,
      "count": 7232,
      "max": [
        0.9994851350784302,
        0.9999900460243225,
        0.9999198317527771
      ],
      "min": [
        -0.9995473623275757,
        -0.9999902248382568,
        -0.9998906254768372
      ],
      "type": "VEC3"
    },
    {
      "bufferView": 4,
      "byteOffset": 22704,
      "componentType": 5126,
      "count": 7232,
      "max": [
        1.0,
        0.9909679293632507,
        0.9999899864196777,
        1.0
      ],
      "min": [
        -0.99998539686203,
        -0.9998302459716797,
        -0.9998924732208252,
        -1.0
      ],
      "type": "VEC4"
    },
    {
      "bufferView": 2,
      "byteOffset": 11352,
      "componentType": 5126,
      "count": 7232,
      "max": [
        0.9924700260162354,
        0.9978560209274292
      ],
      "min": [
        0.004989999812096357,
        0.3460400104522705
      ],
      "type": "VEC2"
    },
    {
      "bufferView": 1,
      "byteOffset": 29352,
      "componentType": 5125,
      "count": 37884,
      "type": "SCALAR"
    },
    {
      "bufferView": 3,
      "byteOffset": 207624,
      "componentType": 5126,
      "count": 98,
      "max": [
        6.169288635253906,
        129.70916748046875,
        9.417508125305176
      ],
      "min": [
        -5.995969772338867,
        127.50557708740234,
        7.323095321655273
      ],
      "type": "VEC3"
    },
    {
      "bufferView": 3,
      "byteOffset": 208800,
      "componentType": 5126,
      "count": 98,
      "max": [
        0.7721379995346069,
        0.799619197845459,
        0.9243123531341553
      ],
      "min": [
        -0.7691578269004822,
        -0.9973966479301453,
        -0.09974482655525208
      ],
      "type": "VEC3"
    },
    {
      "bufferView": 2,
      "byteOffset": 69208,
      "componentType": 5126,
      "count": 98,
      "max": [
        0.596340000629425,
        0.6961590051651001
      ],
      "min": [
        0.5035780072212219,
        0.602649986743927
      ],
      "type": "VEC2"
    },
    {
      "bufferView": 1,
      "byteOffset": 180888,
      "componentType": 5125,
      "count": 318,
      "type": "SCALAR"
    },
    {
      "bufferView": 3,
      "byteOffset": 209976,
      "componentType": 5126,
      "count": 1226,
      "max": [
        9.52595043182373,
        8.377545356750488,
        7.957822322845459
      ],
      "min": [
        -9.570073127746582,
        -1.0636709928512573,
        -10.380631446838379
      ],
      "type": "VEC3"
    },
    {
      "bufferView": 3,
      "byteOffset": 224688,
      "componentType": 5126,
      "count": 1226,
      "max": [
        0.9994136095046997,
        0.9997795224189758,
        0.9989414811134338
      ],
      "min": [
        -0.9994136691093445,
        -0.8321425914764404,
        -0.9968292117118835
      ],
      "type": "VEC3"
    },
    {
      "bufferView": 4,
      "byteOffset": 138416,
      "componentType": 5126,
      "count": 1226,
      "max": [
        0.9998997449874878,
        0.9982022047042847,
        0.9982103109359741,
        1.0
      ],
      "min": [
        -0.9993380308151245,
        -0.9950557351112366,
        -0.984475314617157,
        -1.0
      ],
      "type": "VEC4"
    },
    {
      "bufferView": 2,
      "byteOffset": 69992,
      "componentType": 5126,
      "count": 1226,
      "max": [
        0.97816002368927,
        0.9887700080871582
      ],
      "min": [
        0.01672999933362007,
        0.0142000000923872
      ],
      "type": "VEC2"
    },
    {
      "bufferView": 1,
      "byteOffset": 182160,
      "componentType": 5125,
      "count": 5292,
      "type": "SCALAR"
    },
    {
      "bufferView": 3,
      "byteOffset": 239400,
      "componentType": 5126,
      "count": 963,
      "max": [
        13.010920524597168,
        85.38426208496094,
        10.683822631835938
      ],
      "min": [
        -13.086127281188965,
        6.668781757354736,
        -11.363627433776855
      ],
      "type": "VEC3"
    },
    {
      "bufferView": 3,
      "byteOffset": 250956,
      "componentType": 5126,
      "count": 963,
      "max": [
        0.9999656081199646,
        0.9923739433288574,
        0.9970383644104004
      ],
      "min": [
        -0.9999974966049194,
        -0.9985731840133667,
        -0.9996634721755981
      ],
      "type": "VEC3"
    },
    {
      "bufferView": 4,
      "byteOffset": 158032,
      "componentType": 5126,
      "count": 963,
      "max": [
        0.9998898506164551,
        0.9973104000091553,
        0.9969333410263062,
        1.0
      ],
      "min": [
        -0.9999759793281555,
        -0.9998156428337097,
        -0.9994992017745972,
        -1.0
      ],
      "type": "VEC4"
    },
    {
      "bufferView": 2,
      "byteOffset": 79800,
      "componentType": 5126,
      "count": 963,
      "max": [
        0.9980000257492065,
        0.9943299889564514
      ],
      "min": [
        0.007499999832361937,
        0.022619999945163727
      ],
      "type": "VEC2"
    },
    {
      "bufferView": 1,
      "byteOffset": 203328,
      "componentType": 5125,
      "count": 4296,
      "type": "SCALAR"
    },
    {
      "bufferView": 5,
      "componentType": 5126,
      "count": 93,
      "max": [
        1.0,
        0.5218774676322937,
        0.5673264265060425,
        0.0,
        1.0,
        1.0,
        0.9999982714653015,
        0.0,
        0.9985186457633972,
        0.9990200400352478,
        1.0,
        0.0,
        72.05255126953125,
        122.87064361572266,
        123.16796112060547,
        1.0
      ],
      "min": [
        -0.054412730038166046,
        -0.27810803055763245,
        -1.0000001192092896,
        0.0,
        -0.9998133778572083,
        -0.9999908208847046,
        -0.9999969601631165,
        0.0,
        -0.9994595050811768,
        -1.0000001192092896,
        -0.9976085424423218,
        0.0,
        -121.00257873535156,
        -122.2958755493164,
        -123.68762969970703,
        1.0
      ],
      "type": "MAT4"
    },
    {
      "bufferView": 0,
      "componentType": 5123,
      "count": 615,
      "type": "VEC4"
    },
    {
      "bufferView": 4,
      "byteOffset": 173440,
      "componentType": 5126,
      "count": 615,
      "max": [
        1.0,
        0.49964186549186707,
        0.2983756959438324,
        0.20464785397052765
      ],
      "min": [
        0.31433263421058655,
        0.0,
        0.0,
        0.0
      ],
      "type": "VEC4"
    },
    {
      "bufferView": 0,
      "byteOffset": 4920,
      "componentType": 5123,
      "count": 804,
      "type": "VEC4"
    },
    {
      "bufferView": 4,
      "byteOffset": 183280,
      "componentType": 5126,
      "count": 804,
      "max": [
        1.0,
        0.0,
        0.0,
        0.0
      ],
      "min": [
        1.0,
        0.0,
        0.0,
        0.0
      ],
      "type": "VEC4"
    },
    {
      "bufferView": 0,
      "byteOffset": 11352,
      "componentType": 5123,
      "count": 7232,
      "type": "VEC4"
    },
    {
      "bufferView": 4,
      "byteOffset": 196144,
      "componentType": 5126,
      "count": 7232,
      "max": [
        1.0,
        0.4993199408054352,
        0.31699761748313904,
        0.20370984077453613
      ],
      "min": [
        0.30224570631980896,
        0.0,
        0.0,
        0.0
      ],
      "type": "VEC4"
    },
    {
      "bufferView": 0,
      "byteOffset": 69208,
      "componentType": 5123,
      "count": 98,
      "type": "VEC4"
    },
    {
      "bufferView": 4,
      "byteOffset": 311856,
      "componentType": 5126,
      "count": 98,
      "max": [
        1.0,
        0.0,
        0.0,
        0.0
      ],
      "min": [
        1.0,
        0.0,
        0.0,
        0.0
      ],
      "type": "VEC4"
    },
    {
      "bufferView": 0,
      "byteOffset": 69992,
      "componentType": 5123,
      "count": 1226,
      "type": "VEC4"
    },
    {
      "bufferView": 4,
      "byteOffset": 313424,
      "componentType": 5126,
      "count": 1226,
      "max": [
        1.0,
        0.48025795817375183,
        0.0,
        0.0
      ],
      "min": [
        0.5197420120239258,
        0.0,
        0.0,
        0.0
      ],
      "type": "VEC4"
    },
    {
      "bufferView": 0,
      "byteOffset": 79800,
      "componentType": 5123,
      "count": 963,
      "type": "VEC4"
    },
    {
      "bufferView": 4,
      "byteOffset": 333040,
      "componentType": 5126,
      "count": 963,
      "max": [
        1.0,
        0.4996838867664337,
        0.30057039856910706,
        0.13314402103424072
      ],
      "min": [
        0.33587199449539185,
        0.0,
        0.0,
        0.0
      ],
      "type": "VEC4"
    }
  ],
  "asset": {
    "extras": {
      "author": "MotionStudioArts (https://sketchfab.com/MotionStudioArts)",
      "license": "CC-BY-4.0 (http://creativecommons.org/licenses/by/4.0/)",
      "source": "https://sketchfab.com/3d-models/black-boy-rigged-ready-for-ue4-c9ded09156c244a6b0c3a29820e7f42a",
      "title": "Black Boy Rigged Ready For Ue4"
    },
    "generator": "Sketchfab-15.55.0",
    "version": "2.0"
  },
  "bufferViews": [
    {
      "buffer": 0,
      "byteLength": 87504,
      "byteStride": 8,
      "name": "shortBufferViews",
      "target": 34962
    },
    {
      "buffer": 0,
      "byteLength": 220512,
      "byteOffset": 87504,
      "name": "floatBufferViews",
      "target": 34963
    },
    {
      "buffer": 0,
      "byteLength": 87504,
      "byteOffset": 308016,
      "byteStride": 8,
      "name": "floatBufferViews",
      "target": 34962
    },
    {
      "buffer": 0,
      "byteLength": 262512,
      "byteOffset": 395520,
      "byteStride": 12,
      "name": "floatBufferViews",
      "target": 34962
    },
    {
      "buffer": 0,
      "byteLength": 348448,
      "byteOffset": 658032,
      "byteStride": 16,
      "name": "floatBufferViews",
      "target": 34962
    },
    {
      "buffer": 0,
      "byteLength": 5952,
      "byteOffset": 1006480,
      "name": "floatBufferViews"
    }
  ],
  "buffers": [
    {
      "byteLength": 1012432,
      "uri": "scene.bin"
    }
  ],
  "extensionsUsed": [
    "KHR_materials_specular"
  ],
  "images": [
    {
      "uri": "textures/material_baseColor.png"
    },
    {
      "uri": "textures/material_metallicRoughness.png"
    },
    {
      "uri": "textures/material_normal.png"
    },
    {
      "uri": "textures/Body_baseColor.png"
    },
    {
      "uri": "textures/Body_metallicRoughness.png"
    },
    {
      "uri": "textures/Body_normal.png"
    },
    {
      "uri": "textures/Eyelashes_baseColor.png"
    },
    {
      "uri": "textures/Shoes_baseColor.png"
    },
    {
      "uri": "textures/Shoes_metallicRoughness.png"
    },
    {
      "uri": "textures/Shoes_normal.png"
    },
    {
      "uri": "textures/Bottom_baseColor.png"
    },
    {
      "uri": "textures/Bottom_metallicRoughness.png"
    },
    {
      "uri": "textures/Bottom_normal.png"
    }
  ],
  "materials": [
    {
      "doubleSided": true,
      "name": "material",
      "normalTexture": {
        "index": 2
      },
      "pbrMetallicRoughness": {
        "baseColorTexture": {
          "index": 0
        },
        "metallicRoughnessTexture": {
          "index": 1
        }
      }
    },
    {
      "doubleSided": true,
      "extensions": {
        "KHR_materials_specular": {
          "specularColorFactor": [
            1.0,
            1.0,
            1.0
          ],
          "specularFactor": 0.07279581485755937
        }
      },
      "name": "Body",
      "normalTexture": {
        "index": 5
      },
      "pbrMetallicRoughness": {
        "baseColorTexture": {
          "index": 3
        },
        "metallicRoughnessTexture": {
          "index": 4
        }
      }
    },
    {
      "alphaMode": "BLEND",
      "doubleSided": true,
      "name": "Eyelashes",
      "pbrMetallicRoughness": {
        "baseColorFactor": [
          0.0,
          0.0,
          0.0,
          0.8381484237380794
        ],
        "baseColorTexture": {
          "index": 6
        },
        "metallicFactor": 0.05
      }
    },
    {
      "doubleSided": true,
      "name": "Shoes",
      "normalTexture": {
        "index": 9
      },
      "pbrMetallicRoughness": {
        "baseColorTexture": {
          "index": 7
        },
        "metallicRoughnessTexture": {
          "index": 8
        }
      }
    },
    {
      "doubleSided": true,
      "name": "Bottom",
      "normalTexture": {
        "index": 12
      },
      "pbrMetallicRoughness": {
        "baseColorTexture": {
          "index": 10
        },
        "metallicRoughnessTexture": {
          "index": 11
        }
      }
    }
  ],
  "meshes": [
    {
      "name": "Tops_Top_0",
      "primitives": [
        {
          "attributes": {
            "JOINTS_0": 30,
            "NORMAL": 1,
            "POSITION": 0,
            "TANGENT": 2,
            "TEXCOORD_0": 3,
            "WEIGHTS_0": 31
          },
          "indices": 4,
          "material": 0,
          "mode": 4
        }
      ]
    },
    {
      "name": "Eyes_Body_0",
      "primitives": [
        {
          "attributes": {
            "JOINTS_0": 32,
            "NORMAL": 6,
            "POSITION": 5,
            "TANGENT": 7,
            "TEXCOORD_0": 8,
            "WEIGHTS_0": 33
          },
          "indices": 9,
          "material": 1,
          "mode": 4
        }
      ]
    },
    {
      "name": "Body_Body_0",
      "primitives": [
        {
          "attributes": {
            "JOINTS_0": 34,
            "NORMAL": 11,
            "POSITION": 10,
            "TANGENT": 12,
            "TEXCOORD_0": 13,
            "WEIGHTS_0": 35
          },
          "indices": 14,
          "material": 1,
          "mode": 4
        }
      ]
    },
    {
      "name": "Eyelashes_Eyelashes_0",
      "primitives": [
        {
          "attributes": {
            "JOINTS_0": 36,
            "NORMAL": 16,
            "POSITION": 15,
            "TEXCOORD_0": 17,
            "WEIGHTS_0": 37
          },
          "indices": 18,
          "material": 2,
          "mode": 4
        }
      ]
    },
    {
      "name": "Shoes_Shoes_0",
      "primitives": [
        {
          "attributes": {
            "JOINTS_0": 38,
            "NORMAL": 20,
            "POSITION": 19,
            "TANGENT": 21,
            "TEXCOORD_0": 22,
            "WEIGHTS_0": 39
          },
          "indices": 23,
          "material": 3,
          "mode": 4
        }
      ]
    },
    {
      "name": "Bottoms_Bottom_0",
      "primitives": [
        {
          "attributes": {
            "JOINTS_0": 40,
            "NORMAL": 25,
            "POSITION": 24,
            "TANGENT": 26,
            "TEXCOORD_0": 27,
            "WEIGHTS_0": 41
          },
          "indices": 28,
          "material": 4,
          "mode": 4
        }
      ]
    }
  ],
  "nodes": [
    {
      "children": [
        1
      ],
      "matrix": [
        1.0,
        0.0,
        0.0,
        0.0,
        0.0,
        2.220446049250313e-16,
        -1.0,
        0.0,
        0.0,
        1.0,
        2.220446049250313e-16,
        0.0,
        0.0,
        0.0,
        0.0,
        1.0
      ],
      "name": "Sketchfab_model"
    },
    {
      "children": [
        2
      ],
      "matrix": [
        0.009999999776482582,
        0.0,
        0.0,
        0.0,
        0.0,
        0.0,
        0.009999999776482582,
        0.0,
        0.0,
        -0.009999999776482582,
        0.0,
        0.0,
        0.0,
        0.0,
        0.0,
        1.0
      ],
      "name": "Black Boy.fbx"
    },
    {
      "children": [
        3
      ],
      "name": "RootNode"
    },
    {
      "children": [
        4
      ],
      "matrix": [
        1.0,
        0.0,
        0.0,
        0.0,
        0.0,
        -1.6292067939183141e-07,
        -0.9999999999999868,
        0.0,
        0.0,
        0.9999999999999868,
        -1.6292067939183141e-07,
        0.0,
        0.0,
        0.0,
        0.0,
        1.0
      ],
      "name": "root"
    },
    {
      "children": [
        5,
        99,
        101,
        103,
        105,
        107,
        109,
        98,
        100,
        102,
        104,
        106,
        108
      ],
      "name": "Object_4"
    },
    {
      "children": [
        6,
        11,
        17
      ],
      "name": "_rootJoint"
    },
    {
      "children": [
        7,
        9
      ],
      "name": "ik_foot_root_01",
      "rotation": [
        -1.3234889800848443e-23,
        -0.0,
        0.0,
        1.0
      ]
    },
    {
      "children": [
        8
      ],
      "name": "ik_foot_l_02",
      "rotation": [
        -0.007502603344619274,
        -0.7068000435829163,
        -0.020826198160648346,
        0.7070669531822205
      ],
      "scale": [
        1.0000001192092896,
        1.0000001192092896,
        1.0
      ],
      "translation": [
        5.710596084594727,
        5.986487865447998,
        5.056727886199951
      ]
    },
    {
      "name": "ik_foot_l_end_067",
      "translation": [
        -8.881784197001252e-16,
        9.69636344909668,
        8.881784197001252e-16
      ]
    },
    {
      "children": [
        10
      ],
      "name": "ik_foot_r_03",
      "rotation": [
        0.7070679664611816,
        0.020814640447497368,
        -0.7067996263504028,
        0.007491011172533035
      ],
      "scale": [
        1.0000008344650269,
        1.0,
        1.0
      ],
      "translation": [
        -5.710596084594727,
        5.986486911773682,
        5.056727886199951
      ]
    },
    {
      "name": "ik_foot_r_end_068",
      "rotation": [
        0.0,
        5.421010862427522e-20,
        0.0,
        1.0
      ],
      "translation": [
        0.0,
        9.69636344909668,
        0.0
      ]
    },
    {
      "children": [
        12
      ],
      "name": "ik_hand_root_04",
      "rotation": [
        -1.3234889800848443e-23,
        -0.0,
        0.0,
        1.0
      ]
    },
    {
      "children": [
        13,
        15
      ],
      "name": "ik_hand_gun_05",
      "rotation": [
        0.6743422746658325,
        0.031664613634347916,
        0.11040356010198593,
        0.7294319868087769
      ],
      "translation": [
        -56.40161895751953,
        5.065605163574219,
        109.51937103271484
      ]
    },
    {
      "children": [
        14
      ],
      "name": "ik_hand_l_06",
      "rotation": [
        0.9822750091552734,
        -0.11504533141851425,
        0.1479007601737976,
        -0.0050725205801427364
      ],
      "scale": [
        0.9999986886978149,
        0.9999999403953552,
        0.9999998807907104
      ],
      "translation": [
        109.88662719726563,
        -12.777216911315918,
        22.058502197265625
      ]
    },
    {
      "name": "ik_hand_l_end_069",
      "rotation": [
        -6.938893903907228e-18,
        6.938893903907228e-18,
        -1.8214596497756474e-17,
        1.0
      ],
      "translation": [
        0.0,
        56.40237045288086,
        0.0
      ]
    },
    {
      "children": [
        16
      ],
      "name": "ik_hand_r_07",
      "rotation": [
        -1.0989609933176325e-07,
        -4.190952918037283e-09,
        -1.792796311406164e-08,
        1.0
      ],
      "scale": [
        0.9999999403953552,
        0.9999998211860657,
        0.9999997019767761
      ],
      "translation": [
        4.291534423828125e-06,
        -3.874301910400391e-06,
        1.430511474609375e-06
      ]
    },
    {
      "name": "ik_hand_r_end_070",
      "rotation": [
        -6.938893903907228e-18,
        1.3877787807814457e-17,
        5.204170427930421e-18,
        1.0
      ],
      "translation": [
        7.105427357601002e-15,
        56.402366638183594,
        1.7763568394002505e-15
      ]
    },
    {
      "children": [
        18,
        80,
        89
      ],
      "name": "pelvis_08",
      "rotation": [
        -2.497902869436075e-06,
        -0.7071067690849304,
        -2.4979026420623995e-06,
        0.7071068286895752
      ],
      "scale": [
        1.0,
        0.9999999403953552,
        1.0
      ],
      "translation": [
        -9.464450057006246e-12,
        -2.0529448986053467,
        71.98018646240234
      ]
    },
    {
      "children": [
        19
      ],
      "name": "spine_01_09",
      "rotation": [
        -0.0032725627534091473,
        -0.0002423384430585429,
        -0.06104826182126999,
        0.9981294274330139
      ],
      "scale": [
        0.9999998807907104,
        0.9999998807907104,
        0.9999998211860657
      ],
      "translation": [
        11.13018798828125,
        0.9223833084106445,
        6.018511612637667e-06
      ]
    },
    {
      "children": [
        20
      ],
      "name": "spine_02_010",
      "rotation": [
        0.003307682229205966,
        -0.000157754824613221,
        0.130525141954422,
        0.9914395809173584
      ],
      "scale": [
        1.0,
        0.9999999403953552,
        0.9999998211860657
      ],
      "translation": [
        10.934847831726074,
        2.271920680999756,
        0.005121965892612934
      ]
    },
    {
      "children": [
        21,
        49,
        77
      ],
      "name": "spine_03_011",
      "rotation": [
        -1.104571651922015e-07,
        0.0001725623442325741,
        5.103631792735541e-07,
        1.0
      ],
      "scale": [
        1.0,
        1.0000004768371582,
        1.0
      ],
      "translation": [
        11.150246620178223,
        -0.6356266736984253,
        -0.003851279616355896
      ]
    },
    {
      "children": [
        22
      ],
      "name": "clavicle_l_012",
      "rotation": [
        0.14722590148448944,
        0.6914165616035461,
        0.05089772120118141,
        0.7054623365402222
      ],
      "scale": [
        0.9999997615814209,
        0.9999999403953552,
        1.000000238418579
      ],
      "translation": [
        6.343661785125732,
        0.1279321312904358,
        -3.3861536979675293
      ]
    },
    {
      "children": [
        23,
        47
      ],
      "name": "upperarm_l_013",
      "rotation": [
        -0.18971417844295502,
        0.04977956786751747,
        -0.10099006444215775,
        0.9753623604774475
      ],
      "scale": [
        1.000000238418579,
        1.0,
        0.9999998807907104
      ],
      "translation": [
        10.575676918029785,
        3.129243850708008e-07,
        -1.5874393284320831e-06
      ]
    },
    {
      "children": [
        24,
        45
      ],
      "name": "lowerarm_l_014",
      "rotation": [
        8.738703400013037e-06,
        0.00012353499187156558,
        -0.06826072186231613,
        0.9976676106452942
      ],
      "scale": [
        1.0000001192092896,
        0.9999998211860657,
        0.9999998211860657
      ],
      "translation": [
        24.47425651550293,
        4.291534423828125e-06,
        -3.2186508178710938e-06
      ]
    },
    {
      "children": [
        25,
        29,
        33,
        37,
        41
      ],
      "name": "hand_l_015",
      "rotation": [
        -0.5844996571540833,
        0.045437928289175034,
        0.029909541830420494,
        0.8095684051513672
      ],
      "scale": [
        0.9999998211860657,
        0.9999998211860657,
        1.0
      ],
      "translation": [
        18.510486602783203,
        1.5974044799804688e-05,
        0.004592299461364746
      ]
    },
    {
      "children": [
        26
      ],
      "name": "index_01_l_016",
      "rotation": [
        0.001762723084539175,
        0.04143641144037247,
        0.042577940970659256,
        0.9982320666313171
      ],
      "scale": [
        0.9999999403953552,
        1.0,
        1.0000001192092896
      ],
      "translation": [
        7.372961044311523,
        0.0632973462343216,
        -1.4418888092041016
      ]
    },
    {
      "children": [
        27
      ],
      "name": "index_02_l_017",
      "rotation": [
        -0.0033946663606911898,
        -0.02658926509320736,
        0.04189898073673248,
        0.998762309551239
      ],
      "scale": [
        1.0000001192092896,
        1.0,
        0.9999995231628418
      ],
      "translation": [
        2.157639980316162,
        8.754432201385498e-06,
        0.00026607513427734375
      ]
    },
    {
      "children": [
        28
      ],
      "name": "index_03_l_018",
      "rotation": [
        -0.0013777740532532334,
        -0.014713814482092857,
        -0.07569873332977295,
        0.9970211982727051
      ],
      "scale": [
        0.9999999403953552,
        1.0000007152557373,
        1.0000003576278687
      ],
      "translation": [
        2.1855099201202393,
        -3.337860107421875e-06,
        1.9073486328125e-06
      ]
    },
    {
      "name": "index_03_l_end_071",
      "rotation": [
        4.2129717533470784e-35,
        -6.938893903907228e-18,
        6.071532165918825e-18,
        1.0
      ],
      "translation": [
        -7.105427357601002e-15,
        2.185493230819702,
        0.0
      ]
    },
    {
      "children": [
        30
      ],
      "name": "middle_01_l_019",
      "rotation": [
        -0.000241484260186553,
        -0.03178740665316582,
        0.007699438836425543,
        0.9994649887084961
      ],
      "scale": [
        1.0,
        1.0,
        0.9999997615814209
      ],
      "translation": [
        7.4312214851379395,
        -4.3332576751708984e-05,
        -0.0015985965728759766
      ]
    },
    {
      "children": [
        31
      ],
      "name": "middle_02_l_020",
      "rotation": [
        -0.0009754365892149508,
        -0.01436066534370184,
        0.052162185311317444,
        0.9985349178314209
      ],
      "scale": [
        0.9999998211860657,
        1.000000238418579,
        1.0000001192092896
      ],
      "translation": [
        2.2602322101593018,
        1.341104507446289e-06,
        -0.0010900497436523438
      ]
    },
    {
      "children": [
        32
      ],
      "name": "middle_03_l_021",
      "rotation": [
        0.0006156998570077121,
        0.01134987361729145,
        -0.06553862243890762,
        0.9977853894233704
      ],
      "scale": [
        0.9999998807907104,
        1.0,
        0.9999998211860657
      ],
      "translation": [
        2.173950672149658,
        -1.2367963790893555e-05,
        -4.649162292480469e-06
      ]
    },
    {
      "name": "middle_03_l_end_072",
      "rotation": [
        6.938893903907228e-18,
        3.469446951953614e-18,
        -5.854691731421724e-18,
        1.0
      ],
      "translation": [
        1.4210854715202004e-14,
        2.173933267593384,
        0.0
      ]
    },
    {
      "children": [
        34
      ],
      "name": "pinky_01_l_022",
      "rotation": [
        -0.0013452458661049604,
        -0.19202961027622223,
        0.006872543599456549,
        0.9813641309738159
      ],
      "scale": [
        1.000000238418579,
        1.0000001192092896,
        0.9999999403953552
      ],
      "translation": [
        6.766424179077148,
        0.3713668882846832,
        2.64802622795105
      ]
    },
    {
      "children": [
        35
      ],
      "name": "pinky_02_l_023",
      "rotation": [
        0.0013291356153786182,
        0.026494242250919342,
        0.03714532405138016,
        0.9989578127861023
      ],
      "scale": [
        0.9999998807907104,
        0.9999998807907104,
        1.0000001192092896
      ],
      "translation": [
        1.5927159786224365,
        -3.153085708618164e-05,
        -0.0001347064971923828
      ]
    },
    {
      "children": [
        36
      ],
      "name": "pinky_03_l_024",
      "rotation": [
        0.0002927693712990731,
        0.005868886597454548,
        -0.043331328779459,
        0.9990435838699341
      ],
      "scale": [
        1.000000238418579,
        1.0000008344650269,
        1.0000004768371582
      ],
      "translation": [
        1.257658839225769,
        3.635883331298828e-06,
        0.0008058547973632813
      ]
    },
    {
      "name": "pinky_03_l_end_073",
      "rotation": [
        -6.938893903907228e-18,
        -1.3877787807814457e-17,
        2.6020852139652106e-18,
        1.0
      ],
      "translation": [
        7.105427357601002e-15,
        1.2576349973678589,
        0.0
      ]
    },
    {
      "children": [
        38
      ],
      "name": "ring_01_l_025",
      "rotation": [
        -5.4216001444729045e-05,
        -0.11786019802093506,
        0.0004575280472636223,
        0.9930301904678345
      ],
      "scale": [
        1.0000001192092896,
        1.000000238418579,
        0.9999998807907104
      ],
      "translation": [
        7.230600833892822,
        0.04423901438713074,
        1.3370788097381592
      ]
    },
    {
      "children": [
        39
      ],
      "name": "ring_02_l_026",
      "rotation": [
        0.0008653397671878338,
        0.015297092497348785,
        0.05555660277605057,
        0.998337984085083
      ],
      "scale": [
        1.000000238418579,
        1.0,
        1.0
      ],
      "translation": [
        1.9439866542816162,
        -4.583597183227539e-05,
        0.00043392181396484375
      ]
    },
    {
      "children": [
        40
      ],
      "name": "ring_03_l_00",
      "rotation": [
        0.0012466227635741234,
        0.015345118008553982,
        -0.031063925474882126,
        0.9993988275527954
      ],
      "scale": [
        1.0,
        0.9999998807907104,
        0.9999998211860657
      ],
      "translation": [
        1.8886868953704834,
        4.094839096069336e-05,
        5.245208740234375e-06
      ]
    },
    {
      "name": "ring_03_l_end_074",
      "rotation": [
        -7.52316384526264e-36,
        -3.469446951953614e-18,
        -2.168404344971009e-18,
        1.0
      ],
      "translation": [
        -1.4210854715202004e-14,
        1.88869309425354,
        0.0
      ]
    },
    {
      "children": [
        42
      ],
      "name": "thumb_01_l_027",
      "rotation": [
        0.6532157063484192,
        0.29379451274871826,
        -0.0508851483464241,
        0.6959919333457947
      ],
      "scale": [
        0.9999998211860657,
        0.9999996423721313,
        1.000000238418579
      ],
      "translation": [
        2.6364123821258545,
        1.0158687829971313,
        -1.922227382659912
      ]
    },
    {
      "children": [
        43
      ],
      "name": "thumb_02_l_028",
      "rotation": [
        -0.03189759701490402,
        0.05432546138763428,
        0.08789187669754028,
        0.9941359758377075
      ],
      "scale": [
        1.0,
        0.9999998807907104,
        1.0
      ],
      "translation": [
        3.1506834030151367,
        -6.198883056640625e-06,
        -0.0010741419391706586
      ]
    },
    {
      "children": [
        44
      ],
      "name": "thumb_03_l_029",
      "rotation": [
        -0.0047370390966534615,
        0.008992192335426807,
        -0.04044961929321289,
        0.9991298913955688
      ],
      "scale": [
        0.9999998211860657,
        1.0,
        1.0000001192092896
      ],
      "translation": [
        2.227017641067505,
        -2.942979335784912e-06,
        -1.5213789083645679e-05
      ]
    },
    {
      "name": "thumb_03_l_end_075",
      "rotation": [
        -2.7606286058675343e-17,
        4.359847986107335e-17,
        5.551115123125783e-17,
        1.0
      ],
      "translation": [
        6.217248937900877e-15,
        2.2270069122314453,
        -1.4210854715202004e-14
      ]
    },
    {
      "children": [
        46
      ],
      "name": "lowerarm_twist_01_l_030",
      "rotation": [
        0.1583966314792633,
        -0.00012306093412917107,
        1.9667166270664893e-05,
        0.9873755574226379
      ],
      "scale": [
        0.9999996423721313,
        0.9999998807907104,
        1.0
      ],
      "translation": [
        9.25523567199707,
        1.9788742065429688e-05,
        0.002310633659362793
      ]
    },
    {
      "name": "lowerarm_twist_01_l_end_076",
      "rotation": [
        -6.938893903907228e-18,
        -4.336808689942018e-19,
        -3.469446951953614e-18,
        1.0
      ],
      "translation": [
        0.0,
        13.882875442504883,
        0.0
      ]
    },
    {
      "children": [
        48
      ],
      "name": "upperarm_twist_01_l_031",
      "rotation": [
        -2.8475187718868256e-07,
        8.039223030209541e-05,
        5.3085383200368597e-08,
        1.0
      ],
      "scale": [
        1.0000001192092896,
        1.0,
        0.9999998807907104
      ],
      "translation": [
        4.172325134277344e-06,
        -8.344650268554688e-07,
        3.263354301452637e-05
      ]
    },
    {
      "name": "upperarm_twist_01_l_end_077",
      "rotation": [
        2.7755575615628914e-17,
        -1.734723475976807e-18,
        -6.938893903907228e-18,
        1.0
      ],
      "translation": [
        0.0,
        12.237125396728516,
        0.0
      ]
    },
    {
      "children": [
        50
      ],
      "name": "clavicle_r_032",
      "rotation": [
        -0.6914180517196655,
        0.14722609519958496,
        0.7054609060287476,
        -0.050897758454084396
      ],
      "scale": [
        0.9999968409538269,
        0.9999998807907104,
        1.000003695487976
      ],
      "translation": [
        6.3436784744262695,
        0.1279316544532776,
        3.3861494064331055
      ]
    },
    {
      "children": [
        51,
        75
      ],
      "name": "upperarm_r_033",
      "rotation": [
        -0.14559386670589447,
        0.0497819148004055,
        -0.10257700085639954,
        0.9827523231506348
      ],
      "scale": [
        1.0000032186508179,
        1.0000005960464478,
        0.9999992847442627
      ],
      "translation": [
        -10.575703620910645,
        2.7865171432495117e-06,
        -4.6351924538612366e-05
      ]
    },
    {
      "children": [
        52,
        73
      ],
      "name": "lowerarm_r_034",
      "rotation": [
        9.922884783009067e-05,
        0.00024161460169125348,
        -0.06605735421180725,
        0.9978157877922058
      ],
      "scale": [
        1.0000004768371582,
        0.9999994039535522,
        0.9999992847442627
      ],
      "translation": [
        -24.48646354675293,
        5.7697296142578125e-05,
        -0.030815839767456055
      ]
    },
    {
      "children": [
        53,
        57,
        61,
        65,
        69
      ],
      "name": "hand_r_035",
      "rotation": [
        -0.6194119453430176,
        0.08013815432786942,
        -0.008476809598505497,
        0.7809192538261414
      ],
      "scale": [
        1.0000001192092896,
        1.0000017881393433,
        1.000000238418579
      ],
      "translation": [
        -18.516637802124023,
        3.695487976074219e-05,
        -0.03218996524810791
      ]
    },
    {
      "children": [
        54
      ],
      "name": "index_01_r_036",
      "rotation": [
        -0.00015561316104140133,
        -0.00683095445856452,
        0.03936024010181427,
        0.9992017149925232
      ],
      "scale": [
        0.9999995231628418,
        0.9999997615814209,
        0.9999995231628418
      ],
      "translation": [
        -7.56730842590332,
        -0.043836042284965515,
        1.1533830165863037
      ]
    },
    {
      "children": [
        55
      ],
      "name": "index_02_r_037",
      "rotation": [
        -0.003393454011529684,
        -0.026529347524046898,
        0.04190492257475853,
        0.9987635612487793
      ],
      "scale": [
        1.000000238418579,
        0.9999999403953552,
        1.0000003576278687
      ],
      "translation": [
        -2.1576180458068848,
        -8.605420589447021e-06,
        -2.9802322387695313e-06
      ]
    },
    {
      "children": [
        56
      ],
      "name": "index_03_r_038",
      "rotation": [
        -0.0013766952324658632,
        -0.014712544158101082,
        -0.07570216804742813,
        0.997020959854126
      ],
      "scale": [
        1.000000238418579,
        1.0000001192092896,
        0.9999998807907104
      ],
      "translation": [
        -2.1854991912841797,
        2.232193946838379e-05,
        4.440892098500626e-16
      ]
    },
    {
      "name": "index_03_r_end_078",
      "rotation": [
        6.938893903907228e-18,
        6.938893903907228e-18,
        -7.37257477290143e-18,
        1.0
      ],
      "translation": [
        0.0,
        2.1855177879333496,
        0.0
      ]
    },
    {
      "children": [
        58
      ],
      "name": "middle_01_r_039",
      "rotation": [
        -0.0007161516696214676,
        -0.07972138375043869,
        0.004417503252625465,
        0.9968071579933167
      ],
      "scale": [
        0.9999996423721313,
        0.9999998807907104,
        0.9999997019767761
      ],
      "translation": [
        -7.486070156097412,
        0.019415199756622314,
        -0.285799503326416
      ]
    },
    {
      "children": [
        59
      ],
      "name": "middle_02_r_040",
      "rotation": [
        -0.000988606596365571,
        -0.014600705355405807,
        0.05216119438409805,
        0.9985314607620239
      ],
      "scale": [
        1.0000001192092896,
        0.9999998211860657,
        1.000000238418579
      ],
      "translation": [
        -2.2602291107177734,
        -3.407895565032959e-05,
        1.5497207641601563e-06
      ]
    },
    {
      "children": [
        60
      ],
      "name": "middle_03_r_041",
      "rotation": [
        0.000604660774115473,
        0.011181860230863094,
        -0.06553300470113754,
        0.997787594795227
      ],
      "scale": [
        0.9999998807907104,
        0.9999999403953552,
        1.0000001192092896
      ],
      "translation": [
        -2.1739442348480225,
        5.067884922027588e-05,
        5.781650543212891e-06
      ]
    },
    {
      "name": "middle_03_r_end_079",
      "rotation": [
        6.938893903907228e-18,
        2.407412430484045e-35,
        3.469446951953614e-18,
        1.0
      ],
      "translation": [
        -7.105427357601002e-15,
        2.1739492416381836,
        -8.881784197001252e-16
      ]
    },
    {
      "children": [
        62
      ],
      "name": "pinky_01_r_042",
      "rotation": [
        -0.0022992747835814953,
        -0.23928971588611603,
        0.003605879144743085,
        0.9709388017654419
      ],
      "scale": [
        0.9999997019767761,
        0.9999997019767761,
        0.9999999403953552
      ],
      "translation": [
        -6.571482181549072,
        -0.3571743965148926,
        -2.859147548675537
      ]
    },
    {
      "children": [
        63
      ],
      "name": "pinky_02_r_043",
      "rotation": [
        0.001345483586192131,
        0.026326796039938927,
        0.037141162902116776,
        0.9989622831344604
      ],
      "scale": [
        1.0000001192092896,
        1.0,
        1.000000238418579
      ],
      "translation": [
        -1.5927082300186157,
        5.665421485900879e-05,
        0.0006270408630371094
      ]
    },
    {
      "children": [
        64
      ],
      "name": "pinky_03_r_044",
      "rotation": [
        0.00028214987833052874,
        0.006284620612859726,
        -0.04332840442657471,
        0.9990410804748535
      ],
      "scale": [
        0.9999999403953552,
        1.0,
        0.9999997615814209
      ],
      "translation": [
        -1.2576297521591187,
        -2.2232532501220703e-05,
        2.86102294921875e-06
      ]
    },
    {
      "name": "pinky_03_r_end_080",
      "rotation": [
        -6.938893903907228e-18,
        7.222237291452134e-35,
        -1.0408340855860843e-17,
        1.0
      ],
      "translation": [
        7.105427357601002e-15,
        1.2576284408569336,
        -3.552713678800501e-15
      ]
    },
    {
      "children": [
        66
      ],
      "name": "ring_01_r_045",
      "rotation": [
        -0.00046037518768571317,
        -0.1657339185476303,
        -0.002786916447803378,
        0.9861664772033691
      ],
      "scale": [
        0.9999999403953552,
        1.0000003576278687,
        0.9999994039535522
      ],
      "translation": [
        -7.157662868499756,
        -0.026595622301101685,
        -1.598923683166504
      ]
    },
    {
      "children": [
        67
      ],
      "name": "ring_02_r_046",
      "rotation": [
        0.0008719581528566778,
        0.015406270511448383,
        0.05556030943989754,
        0.9983361959457397
      ],
      "scale": [
        0.9999998211860657,
        0.9999997615814209,
        1.0000001192092896
      ],
      "translation": [
        -1.9439876079559326,
        4.461407661437988e-05,
        2.86102294921875e-06
      ]
    },
    {
      "children": [
        68
      ],
      "name": "ring_03_r_047",
      "rotation": [
        0.0012467906344681978,
        0.01534861046820879,
        -0.031068701297044754,
        0.9993986487388611
      ],
      "scale": [
        0.9999998807907104,
        1.0000001192092896,
        1.0
      ],
      "translation": [
        -1.888686180114746,
        -2.822279930114746e-05,
        0.0
      ]
    },
    {
      "name": "ring_03_r_end_081",
      "rotation": [
        -6.938893903907228e-18,
        6.938893903907228e-18,
        -2.6020852139652106e-18,
        1.0
      ],
      "translation": [
        -7.105427357601002e-15,
        1.8886817693710327,
        -8.881784197001252e-16
      ]
    },
    {
      "children": [
        70
      ],
      "name": "thumb_01_r_048",
      "rotation": [
        0.6558670997619629,
        0.25781020522117615,
        -0.021528244018554688,
        0.7091606259346008
      ],
      "scale": [
        0.9999997615814209,
        0.9999996423721313,
        1.0
      ],
      "translation": [
        -2.905379295349121,
        -1.0271488428115845,
        2.087599277496338
      ]
    },
    {
      "children": [
        71
      ],
      "name": "thumb_02_r_049",
      "rotation": [
        -0.03191902115941048,
        0.05440964922308922,
        0.08788388222455978,
        0.9941313862800598
      ],
      "scale": [
        0.9999999403953552,
        1.0,
        0.9999997019767761
      ],
      "translation": [
        -3.1506731510162354,
        8.463859558105469e-06,
        0.0005304936785250902
      ]
    },
    {
      "children": [
        72
      ],
      "name": "thumb_03_r_050",
      "rotation": [
        -0.004731873981654644,
        0.008821122348308563,
        -0.040450409054756165,
        0.9991313815116882
      ],
      "scale": [
        1.000000238418579,
        1.000000238418579,
        1.0
      ],
      "translation": [
        -2.227011203765869,
        1.1146068572998047e-05,
        -0.0007942543015815318
      ]
    },
    {
      "name": "thumb_03_r_end_082",
      "rotation": [
        1.1296878417530604e-17,
        1.3612878253560674e-17,
        -1.53783026776431e-34,
        1.0
      ],
      "translation": [
        -1.7763568394002505e-15,
        2.2270190715789795,
        0.0
      ]
    },
    {
      "children": [
        74
      ],
      "name": "lowerarm_twist_01_r_051",
      "rotation": [
        0.11151100695133209,
        -0.0008821592200547457,
        9.369375766254961e-05,
        0.9937627911567688
      ],
      "scale": [
        1.0000096559524536,
        1.0000003576278687,
        1.0000216960906982
      ],
      "translation": [
        -9.258331298828125,
        8.106231689453125e-06,
        -0.016073942184448242
      ]
    },
    {
      "name": "lowerarm_twist_01_r_end_083",
      "rotation": [
        0.0,
        -1.734723475976807e-18,
        0.0,
        1.0
      ],
      "translation": [
        0.0,
        13.887523651123047,
        -1.4210854715202004e-14
      ]
    },
    {
      "children": [
        76
      ],
      "name": "upperarm_twist_01_r_052",
      "rotation": [
        -3.218299582385953e-07,
        -0.0006264076218940318,
        1.159496889613365e-07,
        0.9999998211860657
      ],
      "scale": [
        1.0000001192092896,
        0.9999999403953552,
        1.0000017881393433
      ],
      "translation": [
        -3.2782554626464844e-07,
        -7.3909759521484375e-06,
        -2.0682811737060547e-05
      ]
    },
    {
      "name": "upperarm_twist_01_r_end_084",
      "rotation": [
        -6.018531076210112e-36,
        -1.734723475976807e-18,
        -3.469446951953614e-18,
        1.0
      ],
      "translation": [
        -8.881784197001252e-16,
        12.243258476257324,
        0.0
      ]
    },
    {
      "children": [
        78
      ],
      "name": "neck_01_053",
      "rotation": [
        0.006485802587121725,
        -0.0017858351347967982,
        -0.28293079137802124,
        0.9591167569160461
      ],
      "scale": [
        0.9999999403953552,
        0.9999997615814209,
        0.9999998211860657
      ],
      "translation": [
        11.150278091430664,
        -0.6356340646743774,
        -3.036587713722838e-06
      ]
    },
    {
      "children": [
        79
      ],
      "name": "head_054",
      "rotation": [
        -0.0066278427839279175,
        0.0013218403328210115,
        0.2153366208076477,
        0.976516604423523
      ],
      "translation": [
        4.961768627166748,
        -2.273392141205477e-07,
        0.001211619353853166
      ]
    },
    {
      "name": "head_end_085",
      "rotation": [
        -6.776263578034403e-21,
        3.2311742677852644e-27,
        -7.940933880509066e-23,
        1.0
      ],
      "translation": [
        -1.4210854715202004e-14,
        4.961773872375488,
        -3.3881317890172014e-20
      ]
    },
    {
      "children": [
        81,
        87
      ],
      "name": "thigh_l_055",
      "rotation": [
        -0.014225456863641739,
        0.010342566296458244,
        -0.03745436295866966,
        0.999143660068512
      ],
      "scale": [
        1.0000004768371582,
        0.9999994039535522,
        0.9999918937683105
      ],
      "translation": [
        5.242174552222423e-07,
        4.8341244109906256e-05,
        -6.943469047546387
      ]
    },
    {
      "children": [
        82,
        84
      ],
      "name": "calf_l_056",
      "rotation": [
        1.0487567259076513e-08,
        2.473317408657749e-07,
        -0.04405730590224266,
        0.9990290999412537
      ],
      "scale": [
        1.000000238418579,
        1.000000238418579,
        1.0
      ],
      "translation": [
        -33.533103942871094,
        8.717179298400879e-06,
        1.1129304766654968e-06
      ]
    },
    {
      "children": [
        83
      ],
      "name": "calf_twist_01_l_057",
      "rotation": [
        -3.579771856720981e-08,
        4.074537152121138e-09,
        9.320503835397176e-08,
        1.0
      ],
      "scale": [
        0.9999998211860657,
        0.9999998211860657,
        0.9999998807907104
      ],
      "translation": [
        -16.974145889282227,
        -6.9141387939453125e-06,
        -1.7881393432617188e-07
      ]
    },
    {
      "name": "calf_twist_01_l_end_086",
      "rotation": [
        0.0,
        -8.673617379884035e-19,
        0.0,
        1.0
      ],
      "translation": [
        0.0,
        25.461244583129883,
        0.0
      ]
    },
    {
      "children": [
        85
      ],
      "name": "foot_l_058",
      "rotation": [
        -0.0052187079563736916,
        -0.011008565314114094,
        0.07183798402547836,
        0.9973419308662415
      ],
      "scale": [
        0.9999995231628418,
        0.9999993443489075,
        1.0000004768371582
      ],
      "translation": [
        -33.94832229614258,
        -3.2335519790649414e-06,
        -9.238719940185547e-07
      ]
    },
    {
      "children": [
        86
      ],
      "name": "ball_l_059",
      "rotation": [
        -0.0045587047934532166,
        -0.005753710400313139,
        -0.7004029154777527,
        0.7137099504470825
      ],
      "scale": [
        1.0000001192092896,
        0.9999998807907104,
        0.9999996423721313
      ],
      "translation": [
        -3.555569887161255,
        -10.006708145141602,
        -0.0026833461597561836
      ]
    },
    {
      "name": "ball_l_end_087",
      "rotation": [
        3.970466940254533e-20,
        -3.469446951953614e-18,
        6.776263578034403e-21,
        1.0
      ],
      "translation": [
        -4.440892098500626e-16,
        10.619613647460938,
        0.0
      ]
    },
    {
      "children": [
        88
      ],
      "name": "thigh_twist_01_l_060",
      "rotation": [
        1.127482178731043e-07,
        -2.3812751237528573e-07,
        -9.528591249363672e-08,
        1.0
      ],
      "scale": [
        1.000000238418579,
        1.0000003576278687,
        1.0
      ],
      "translation": [
        -16.766550064086914,
        2.0563602447509766e-06,
        4.6566128730773926e-07
      ]
    },
    {
      "name": "thigh_twist_01_l_end_088",
      "rotation": [
        1.734723475976807e-18,
        3.0357660829594124e-18,
        -6.938893903907228e-18,
        1.0
      ],
      "translation": [
        0.0,
        25.149818420410156,
        -8.881784197001252e-16
      ]
    },
    {
      "children": [
        90,
        96
      ],
      "name": "thigh_r_061",
      "rotation": [
        -0.010351947508752346,
        -0.01423198264092207,
        0.9991434216499329,
        0.03745338320732117
      ],
      "scale": [
        1.0000017881393433,
        0.9999998807907104,
        1.0000007152557373
      ],
      "translation": [
        -2.3412399968947284e-05,
        -4.905657624476589e-05,
        6.943467617034912
      ]
    },
    {
      "children": [
        91,
        93
      ],
      "name": "calf_r_062",
      "rotation": [
        8.207666724047158e-07,
        1.5068279708430055e-06,
        -0.04406019672751427,
        0.9990288615226746
      ],
      "scale": [
        0.999998927116394,
        1.0,
        1.000003695487976
      ],
      "translation": [
        33.532745361328125,
        1.6048550605773926e-05,
        0.0006435709074139595
      ]
    },
    {
      "children": [
        92
      ],
      "name": "calf_twist_01_r_063",
      "rotation": [
        9.802180755968948e-08,
        -2.6973458489010227e-07,
        9.32486869942295e-08,
        1.0
      ],
      "scale": [
        0.9999999403953552,
        0.9999999403953552,
        0.9999979734420776
      ],
      "translation": [
        16.973995208740234,
        -1.671910285949707e-05,
        0.00037101656198501587
      ]
    },
    {
      "name": "calf_twist_01_r_end_089",
      "rotation": [
        0.0,
        1.3010426069826053e-18,
        0.0,
        1.0
      ],
      "translation": [
        0.0,
        25.461017608642578,
        -8.881784197001252e-16
      ]
    },
    {
      "children": [
        94
      ],
      "name": "foot_r_064",
      "rotation": [
        -0.005219597835093737,
        -0.011014405637979507,
        0.07183776050806046,
        0.9973418712615967
      ],
      "scale": [
        1.0000003576278687,
        0.9999990463256836,
        0.9999875426292419
      ],
      "translation": [
        33.94802474975586,
        -3.0234456062316895e-05,
        0.0007411614060401917
      ]
    },
    {
      "children": [
        95
      ],
      "name": "ball_r_065",
      "rotation": [
        0.002999057061970234,
        0.0019242920679971576,
        -0.7004095315933228,
        0.7137323021888733
      ],
      "scale": [
        1.000000238418579,
        0.9999988079071045,
        1.0000001192092896
      ],
      "translation": [
        3.5555248260498047,
        10.006715774536133,
        0.002719864249229431
      ]
    },
    {
      "name": "ball_r_end_090",
      "rotation": [
        1.0683203047244863e-19,
        -3.469446951953614e-18,
        3.7064806249365253e-37,
        1.0
      ],
      "translation": [
        0.0,
        10.61960220336914,
        8.881784197001252e-16
      ]
    },
    {
      "children": [
        97
      ],
      "name": "thigh_twist_01_r_066",
      "rotation": [
        -1.4502435874419461e-07,
        1.1644442565739155e-06,
        1.8322316464036703e-07,
        1.0
      ],
      "scale": [
        0.9999997615814209,
        1.0000001192092896,
        1.000000238418579
      ],
      "translation": [
        16.766382217407227,
        8.702278137207031e-06,
        0.0003236308693885803
      ]
    },
    {
      "name": "thigh_twist_01_r_end_091",
      "rotation": [
        -1.734723475976807e-18,
        2.168404344971009e-18,
        -6.938893903907228e-18,
        1.0
      ],
      "translation": [
        7.105427357601002e-15,
        25.149599075317383,
        0.0
      ]
    },
    {
      "matrix": [
        1.0,
        0.0,
        0.0,
        0.0,
        0.0,
        -4.557403692745025e-08,
        -0.9999999999999999,
        0.0,
        0.0,
        0.9999999999999999,
        -4.557403692745025e-08,
        0.0,
        3.933906555175781e-06,
        6.43730109762198e-06,
        -1.9073489141958714e-06,
        1.0
      ],
      "name": "Object_98"
    },
    {
      "mesh": 0,
      "name": "Object_99",
      "skin": 0
    },
    {
      "matrix": [
        1.0,
        0.0,
        0.0,
        0.0,
        0.0,
        -4.557403692745025e-08,
        -0.9999999999999999,
        0.0,
        0.0,
        0.9999999999999999,
        -4.557403692745025e-08,
        0.0,
        3.933906555175781e-06,
        6.43730109762198e-06,
        -1.9073489141958714e-06,
        1.0
      ],
      "name": "Object_100"
    },
    {
      "mesh": 1,
      "name": "Object_101",
      "skin": 0
    },
    {
      "matrix": [
        1.0,
        0.0,
        0.0,
        0.0,
        0.0,
        -4.557403692745025e-08,
        -0.9999999999999999,
        0.0,
        0.0,
        0.9999999999999999,
        -4.557403692745025e-08,
        0.0,
        3.933906555175781e-06,
        6.43730109762198e-06,
        -1.9073489141958714e-06,
        1.0
      ],
      "name": "Object_102"
    },
    {
      "mesh": 2,
      "name": "Object_103",
      "skin": 0
    },
    {
      "matrix": [
        1.0,
        0.0,
        0.0,
        0.0,
        0.0,
        -4.557403692745025e-08,
        -0.9999999999999999,
        0.0,
        0.0,
        0.9999999999999999,
        -4.557403692745025e-08,
        0.0,
        3.933906555175781e-06,
        6.43730109762198e-06,
        -1.9073489141958714e-06,
        1.0
      ],
      "name": "Object_104"
    },
    {
      "mesh": 3,
      "name": "Object_105",
      "skin": 0
    },
    {
      "matrix": [
        1.0,
        0.0,
        0.0,
        0.0,
        0.0,
        -4.557403692745025e-08,
        -0.9999999999999999,
        0.0,
        0.0,
        0.9999999999999999,
        -4.557403692745025e-08,
        0.0,
        3.933906555175781e-06,
        6.43730109762198e-06,
        -1.9073489141958714e-06,
        1.0
      ],
      "name": "Object_106"
    },
    {
      "mesh": 4,
      "name": "Object_107",
      "skin": 0
    },
    {
      "matrix": [
        1.0,
        0.0,
        0.0,
        0.0,
        0.0,
        -4.557403692745025e-08,
        -0.9999999999999999,
        0.0,
        0.0,
        0.9999999999999999,
        -4.557403692745025e-08,
        0.0,
        3.933906555175781e-06,
        6.43730109762198e-06,
        -1.9073489141958714e-06,
        1.0
      ],
      "name": "Object_108"
    },
    {
      "mesh": 5,
      "name": "Object_109",
      "skin": 0
    }
  ],
  "samplers": [
    {
      "magFilter": 9729,
      "minFilter": 9987,
      "wrapS": 10497,
      "wrapT": 10497
    }
  ],
  "scene": 0,
  "scenes": [
    {
      "name": "Sketchfab_Scene",
      "nodes": [
        0
      ]
    }
  ],
  "skins": [
    {
      "inverseBindMatrices": 29,
      "joints": [
        5,
        6,
        7,
        8,
        9,
        10,
        11,
        12,
        13,
        14,
        15,
        16,
        17,
        18,
        19,
        20,
        21,
        22,
        23,
        24,
        25,
        26,
        27,
        28,
        29,
        30,
        31,
        32,
        33,
        34,
        35,
        36,
        37,
        38,
        39,
        40,
        41,
        42,
        43,
        44,
        45,
        46,
        47,
        48,
        49,
        50,
        51,
        52,
        53,
        54,
        55,
        56,
        57,
        58,
        59,
        60,
        61,
        62,
        63,
        64,
        65,
        66,
        67,
        68,
        69,
        70,
        71,
        72,
        73,
        74,
        75,
        76,
        77,
        78,
        79,
        80,
        81,
        82,
        83,
        84,
        85,
        86,
        87,
        88,
        89,
        90,
        91,
        92,
        93,
        94,
        95,
        96,
        97
      ],
      "skeleton": 5
    }
  ],
  "textures": [
    {
      "sampler": 0,
      "source": 0
    },
    {
      "sampler": 0,
      "source": 1
    },
    {
      "sampler": 0,
      "source": 2
    },
    {
      "sampler": 0,
      "source": 3
    },
    {
      "sampler": 0,
      "source": 4
    },
    {
      "sampler": 0,
      "source": 5
    },
    {
      "sampler": 0,
      "source": 6
    },
    {
      "sampler": 0,
      "source": 7
    },
    {
      "sampler": 0,
      "source": 8
    },
    {
      "sampler": 0,
      "source": 9
    },
    {
      "sampler": 0,
      "source": 10
    },
    {
      "sampler": 0,
      "source": 11
    },
    {
      "sampler": 0,
      "source": 12
    }
  ]
}
